<svg xmlns="http://www.w3.org/2000/svg" viewBox="0 0 32 32" fill="none">
  <!-- Background rounded square -->
  <rect width="32" height="32" rx="7" fill="#1e1e2e"/>

  <!-- Left curly brace -->
  <path d="M11 7 C9 7 8 8 8 10 L8 13 C8 15 7 15.5 6 16 C7 16.5 8 17 8 19 L8 22 C8 24 9 25 11 25"
        stroke="#7aa2f7" stroke-width="2" stroke-linecap="round" stroke-linejoin="round" fill="none"/>

  <!-- Right curly brace -->
  <path d="M21 7 C23 7 24 8 24 10 L24 13 C24 15 25 15.5 26 16 C25 16.5 24 17 24 19 L24 22 C24 24 23 25 21 25"
        stroke="#7aa2f7" stroke-width="2" stroke-linecap="round" stroke-linejoin="round" fill="none"/>

  <!-- Center dot -->
  <circle cx="16" cy="16" r="1.5" fill="#7aa2f7"/>
</svg>
